<svg xmlns="http://www.w3.org/2000/svg" width="48" height="48" viewBox="0 0 48 48" fill="none">
  <rect width="48" height="48" rx="10" fill="#0f172a"/>
  <!-- starfield -->
  <circle cx="10" cy="12" r="1" fill="#93c5fd" opacity="0.7"/>
  <circle cx="38" cy="16" r="1" fill="#e0e7ff" opacity="0.8"/>
  <circle cx="14" cy="36" r="1" fill="#93c5fd" opacity="0.6"/>
  <circle cx="36" cy="34" r="1" fill="#e0e7ff" opacity="0.5"/>
  <!-- engine flame -->
  <path d="M24 38 L22 44 L24 42 L26 44 Z" fill="#ff9000"/>
  <path d="M24 39 L23 43 L24 42 L25 43 Z" fill="#ffe020"/>
  <!-- Mk-I Interceptor silhouette (nose up) -->
  <polygon points="24,6 26,18 40,34 40,38 28,40 28,38 20,38 20,40 8,38 8,34 22,18"
           fill="#2563eb" stroke="#60a5fa" stroke-width="1.2" stroke-linejoin="round"/>
  <!-- cockpit -->
  <rect x="21" y="11" width="6" height="11" rx="2.5" fill="#20d8ff"/>
  <!-- nav lights -->
  <rect x="8" y="33" width="2.4" height="2.4" fill="#ff2020"/>
  <rect x="37.6" y="33" width="2.4" height="2.4" fill="#20ff66"/>
</svg>
